<?xml version="1.0" encoding="utf-8"?>
<!-- Generator: Adobe Illustrator 23.0.3, SVG Export Plug-In . SVG Version: 6.00 Build 0)  -->
<svg version="1.1" id="icon-boxer" xmlns="http://www.w3.org/2000/svg" xmlns:xlink="http://www.w3.org/1999/xlink" x="0px" y="0px" viewBox="0 0 209 200" xml:space="preserve">
<path class="color-fill_orange-porsche" d="M207.9,102.5c-1.9-8.2-5.5-15.4-10.7-22.2c-7.5-9.8-17.4-16.7-27.4-23.6
	c0,0,0,0,0,0c0,0-0.2,0.4-0.2,0.4c0,0,0,0,0,0c0,0,0,0,0,0c0,0,0,0,0,0c2.4,12,4.8,24,7.2,35.9c0.7,3.5,0.1,6.1-3.7,7.4
	c-2.8,0.9-5.1,3.1-8.2,3.4c-0.3,0.1-0.7,0.3-1,0.4c-0.7,0.3-1.3,0.5-2,0.6c-0.7,0.2-1.4,0.3-2,0.4c-3.8,0.7-7.7,0.5-11.5,1
	c-1.5,9.9-2.9,19.8-4.4,29.7c6,0.2,12,0.3,18,0.5c3-0.2,6-0.2,8.9-0.6c13.3-2,26.1-4.9,34.3-17.2c1.5-2.2,1.5-5.1,3.8-6.8
	c0-2.3,0-4.7,0-7C207.8,104.5,208.1,103.4,207.9,102.5z"/>
<path class="color-fill_blue-curious" d="M43,89.1c-2.1-1.8-3.7-4-6-5.2c-1-0.6-2.1-0.9-3.5-0.9c-1,0-2.1,0.1-3.4,0.5
	c-3.7,1.1-6.7-4-9.8-6.5c-2.1-1.6-0.6-3.3,0.1-4.9c1.6-3.5,3-7,4.8-10.4c3.6-7.2,3.7-7.2,11.4-5.5c-0.3-5.9-4.8-8.2-9.2-10.7
	c-2.2-1.3-3.7-1.2-5.7,0.4C14.2,51.5,7,57.6,0,64c0,2.3,0,4.7,0,7c2.5,1.1,3.1,3.8,4.4,5.8C9.6,84.8,14.8,93,19.9,101l0,0
	c0,0,0,0,0,0C27.9,97.7,36,94.3,43,89.1z"/>
<path class="color-fill_blue-curious" d="M119,178.2c-3.3-0.3-6.5-0.4-9.8,0.2c-2.1,7.2-4.1,14.4-6.2,21.6
	c7.3,0,14.7,0,22,0c0.5-1.5,2-0.7,2.9-1.4c0.7-3.2-0.4-5.8-1.9-8.3c-1.1-1.9-2.5-3.7-3.3-5.7C121.7,182.3,120.2,180.3,119,178.2z"/>
<path class="color-fill_red-copper" d="M89.4,4.4c2.9-0.3,5.8-1,8.8-1.5C96.3,0.7,93,1.9,91,0c-4,0-8,0-12,0
	c-1.1,1.7-3.1,1.5-4.7,2.1c-3.6,1.3-7.4,2.1-10.3,5C72.6,7.5,80.9,5.2,89.4,4.4z"/>
<path class="color-fill_blue-cornflower" d="M140.7,137.9c-3.9-0.9-7.7-2-11.5-2.8c-1.9-0.4-1.9-1.3-1.3-2.8
	c3-8.9,6-17.9,8.9-26.9c0.5-1.6,1.3-2.9,3.1-2.3c2.9,0.9,6.4,0.5,8.6,3.3c3.8-0.5,7.7-0.4,11.5-1c0.7-0.1,1.4-0.3,2-0.4
	c0.7-0.2,1.3-0.4,2-0.6c0.3-0.1,0.7-0.3,1-0.4c1.6-15.6,3.1-31.1,4.7-46.7c0,0,0,0,0,0c0,0,0.2-0.4,0.2-0.4c0,0,0,0,0,0
	c-0.6-1.9,1.5-4.6-1.2-5.7c-2.4-1-4.3,0.9-6.1,2.4c-0.6,0.5-1.3,1-1.9,1.5c-11.9,11.6-23.8,23.3-35.7,34.9c-0.1,2.3,1.4,4.1,2.1,6.2
	c0.1,0.3,0.2,0.6,0.3,0.9c0,0,0,0,0,0c0,0,0,0,0,0c2,1.7,2.7,3.5,2.7,5.7c0,0.2,0,0.4,0,0.6c-0.1,0.8-0.2,1.7-0.4,2.6
	c-1.6,7.2-2.3,14.6-3.4,22c-0.6,4-0.9,7-6.9,5.5c-7.4-1.9-15.1-3.6-23-3.3c4.3,8.5,9.1,16.7,14.1,24.7c16.8,0.1,33.6,0.1,50.4,0.2
	c0.5-6.1,0.9-12.2,1.4-18.3c-6-0.2-12-0.3-18-0.5C143.7,138.2,142.1,138.3,140.7,137.9z"/>
<path class="color-fill_red-copper" d="M79.4,106.4c0.1-0.2,0.1-0.3,0.2-0.5c0.3-1.2,0.1-2.6,0.2-3.9
	c-4-6.5-7.9-12.9-11.9-19.4c-1,6.2-1.6,12.5-5.5,17.8c-1.7,2.3-3.2,4.3-6.5,2.6c-9.8,5.7-19.5,11.4-29.3,17
	c2.2,9.1,6.7,17.1,13,23.9c11.8,12.6,26.6,11.8,37.3-1.6c3.5-4.3,6.1-9.1,8.1-14.3C77.5,122.2,76,115,79.4,106.4z"/>
<path class="color-fill_blue-curious" d="M119.1,133.3c6,1.5,6.3-1.5,6.9-5.5c1.1-7.3,1.8-14.7,3.4-22
	c0.2-0.9,0.3-1.8,0.4-2.6c0-0.2,0-0.4,0-0.6c0-2.2-0.7-4-2.7-5.7c0,0,0,0,0,0c-0.2,0.3-0.4,0.5-0.7,0.7c-0.3,0.2-0.7,0.3-1.1,0.3
	c0,0,0,0,0,0c-0.3,0-0.5-0.1-0.8-0.2c-0.1-0.1-0.3-0.1-0.4-0.2c-6.4-4.4-12.7-8.8-19.1-13.2c-4-3.1-8.2-3.6-12.4-3
	c-2.5,0.3-5.1,1.1-7.7,1.8c-1,3.6-1.5,7.2-2.3,10.9c-0.6,2.8-1.5,5.6-2.9,8.2c-0.1,1.3,0.1,2.7-0.2,3.9c0,0.2-0.1,0.3-0.2,0.5
	C76,115,77.5,122.2,85,128c3.8,0.1,7.5,0.6,11.1,2C104,129.7,111.7,131.4,119.1,133.3z"/>
<path class="color-fill_blue-lavender" d="M109.2,178.4c3.2-0.6,6.5-0.4,9.8-0.2c16.4-0.1,32.7-0.3,49.1-0.4
	c-1.3-8-3.6-15.7-7.4-22.9c-16.8-0.1-33.6-0.1-50.4-0.2C109.9,162.6,109.6,170.5,109.2,178.4z"/>
<path class="color-fill_blue-curious" d="M49.2,91.9C39.9,95.8,30.1,98.5,21,103c1,4.9,2.1,9.8,3.1,14.7
	c0.3,1.4,0.9,2.4,2.6,2.3c9.8-5.7,19.5-11.4,29.3-17C54.5,98.8,52,95.2,49.2,91.9z"/>
<path class="color-fill_blue-cornflower" d="M47.6,87.9c-1.5,0.5-2.9,1.4-4.6,1.2c0,0,0,0,0,0c-7,5.3-15.1,8.6-23.1,12
	c0,0,0,0,0,0c0.3,0.7,0.7,1.3,1,2c9.1-4.5,18.9-7.2,28.2-11.1C48.7,90.5,48.1,89.2,47.6,87.9z"/>
<path class="color-fill_blue-cornflower" d="M98.8,72.1c4.4,1.5,7.5,0.4,9.7-3.7c0.1-0.2,0.3-0.5,0.5-0.7
	c0.5-0.6,1.3-1.2,1.9-1.8c3.4-5.3,7.1-10.5,11-15.4c1.3-1.6,2.6-3.3,4-4.9c0.5-2.4,3-4,1.5-7.3c-4.1-8.7-7.6-17.7-11.2-26.7
	C111-1,114,1.4,101.7,2.8C100.5,3,99.4,2.9,98.2,3c-2.9,0.5-5.8,1.2-8.8,1.5C80.9,5.2,72.6,7.5,64,7.1c-3,1.5-6.4,1.8-9.5,1.8
	c-4.2-0.1-4.9,1.7-4.8,5.4c0.2,4.4,0.1,8.9-0.4,13.3c-1.1,10.9-1.3,10.9,9.6,11.5c8-0.7,16-1.4,24.1-2c3.1-0.2,2.9,2,2.8,4
	c1.9,9.2,2.7,18.5,3.8,27.7c0.5,1,1,2.1,1.5,3.1C93.7,71.1,96.4,71.3,98.8,72.1z"/>
<path class="color-fill_red-copper" d="M85,83c2.6-0.7,5.1-1.4,7.7-1.8c4.2-0.6,8.4-0.1,12.4,3c1.5-0.7,3-1.4,4.6-2
	c7.1-2.7,9.2-1.9,12.7,4.5c0.6,1.2,1.1,2.4,2.4,3c11.9-11.6,23.8-23.3,35.7-34.9c-7.2,0.7-14.1,3.2-21.1,4.9
	c-2.6,0.6-4.2,0.3-5.6-2.3c-1.6-3-3.8-5.7-5.8-8.5c-3.7,5.8-8.5,10.8-13.2,15.7c-1.1,1.2-2.5,1.4-4,1.3c-0.6,0.6-1.3,1.1-1.9,1.8
	c-0.2,0.2-0.3,0.4-0.5,0.7c-2.2,4.1-5.3,5.2-9.7,3.7c-2.4-0.8-5.1-1-7.6-0.3c-6.1,1.5-12.2,3-18.4,4.6C76.8,78.6,80.9,80.8,85,83z"
	/>
<path class="color-fill_brown-sorrell" d="M110.8,66c1.5,0.2,2.9-0.1,4-1.3c4.7-5,9.5-9.9,13.2-15.7
	c-0.7-1.1-1.5-2.2-2.2-3.3c-1.4,1.6-2.7,3.2-4,4.9C117.9,55.5,114.3,60.7,110.8,66z"/>
<path class="color-fill_orange-porsche" d="M59.8,43.1c0.8,8.2,2.4,16.4,3.8,24.5c0.5,3.2,2,3.6,4.8,3.2
	c7.1-0.8,14.2-1.4,21.2-2.1c-1.1-9.3-1.9-18.6-3.8-27.7C77.2,41.7,68.5,42.4,59.8,43.1z"/>
<path class="color-fill_blue-cerulean" d="M25.2,61.6C23.5,65,22,68.5,20.5,72c-0.7,1.6-2.2,3.2-0.1,4.9
	c3.2,2.5,6.2,7.7,9.8,6.5c1.3-0.4,2.4-0.5,3.4-0.5c1.3,0,2.4,0.4,3.5,0.9c2.3,1.2,3.9,3.5,6,5.2c1.7,0.2,3.1-0.7,4.6-1.2
	c-0.5-4.8,1.8-9,2.9-13.4c1.3-5.4-0.3-8.8-4.8-11.7c-3.1-2-7-3.1-9.1-6.7C28.9,54.4,28.9,54.4,25.2,61.6z"/>
<path class="color-fill_blue-cornflower" d="M82.6,93.9C83.5,90.2,84,86.5,85,83c-4.1-2.2-8.1-4.4-12.2-6.6
	c-0.5-0.1-0.9-0.3-1.4-0.4c-1.9-0.6-3.8-0.5-5.1,0.9c-1.5,1.6,0.7,2.9,1.1,4.3c0.2,0.5,0.3,0.9,0.4,1.4c4,6.5,7.9,12.9,11.9,19.4
	C81.2,99.4,82,96.7,82.6,93.9z"/>
<path class="color-fill_brown-sorrell" d="M83,37c-8,0.6-16,1.3-24.1,2c0.2,1.4,0,2.9,0.9,4.1c8.7-0.7,17.3-1.4,26-2.1
	C85.9,39,86.1,36.8,83,37z"/>
<path class="color-fill_blue-cornflower" d="M122.7,184.6c0.8,2,2.2,3.8,3.3,5.7c1.5,2.4,2.6,5,1.9,8.3
	c14.4-2,27.2-7.9,38.9-16.4c1.7-1.2,2.9-2.3,1.3-4.4c-16.4,0.1-32.7,0.3-49.1,0.4C120.2,180.3,121.7,182.3,122.7,184.6z"/>
<path class="color-fill_blue-curious" d="M139.8,103.1c-1.8-0.5-2.6,0.7-3.1,2.3c-2.9,9-5.9,17.9-8.9,26.9
	c-0.5,1.5-0.6,2.4,1.3,2.8c3.9,0.8,7.7,2,11.5,2.8c1.5,0.3,3.1,0.3,3.4-1.9c1.5-9.9,2.9-19.8,4.4-29.7
	C146.2,103.5,142.8,103.9,139.8,103.1z"/>
<path class="color-fill_brown-beaver" d="M173.1,100.5c3.8-1.3,4.4-3.9,3.7-7.4c-2.4-12-4.8-24-7.2-35.9c0,0,0,0,0,0
	c-1.6,15.6-3.1,31.1-4.7,46.7C168,103.6,170.3,101.4,173.1,100.5z"/>
<path class="color-fill_blue-cerulean" d="M122.3,86.8c-3.5-6.5-5.7-7.2-12.7-4.5c-1.5,0.6-3,1.3-4.6,2
	c6.4,4.4,12.7,8.8,19.1,13.2c0.1,0.1,0.3,0.2,0.4,0.2c0.3,0.1,0.5,0.2,0.8,0.2c0,0,0,0,0,0c0.4,0,0.8-0.1,1.1-0.3
	c0.2-0.2,0.5-0.4,0.7-0.7c-0.1-0.3-0.1-0.6-0.3-0.9c-0.7-2-2.2-3.9-2.1-6.2c0,0,0,0,0,0C123.4,89.3,123,88,122.3,86.8z"/>
</svg>
