<?xml version="1.0" encoding="utf-8"?>
<!-- Generator: Adobe Illustrator 23.0.3, SVG Export Plug-In . SVG Version: 6.00 Build 0)  -->
<svg version="1.1" id="icon-football-player" xmlns="http://www.w3.org/2000/svg" xmlns:xlink="http://www.w3.org/1999/xlink" x="0px" y="0px"
	 viewBox="0 0 248.7 207" style="enable-background:new 0 0 248.7 207;" xml:space="preserve">
<path class="color-fill_grey-eclipse" d="M136,174c0.6-0.1,1.3-0.1,1.9-0.1c0,0,0,0,0.1,0c3.3-0.1,6.6,0.3,9.9,0.3
	c0.4-0.3,0.7-0.6,1.1-0.8c1.4-0.7,2.8-0.3,4.2,0.3c0.3,0.1,0.5,0.2,0.8,0.3c4-0.5,8.1,0.7,12.1-0.9c-1.2-1.2-3-1.7-3.1-4.1
	c-0.5-14.9-1.2-29.7-2-44.5c-0.2-3,1-4.6,3.9-5.3c8-1.9,16-4.1,23.8-6.8c1.2-0.4,2.6-0.1,3.9-0.2c0.4-0.1,0.9-0.2,1.3-0.3
	c10.6-3.6,21.4-6.6,32.4-9c3.6-0.8,7.3-1.5,11-2.2c0.8-2.3-0.8-3.8-1.8-5.4c-5.7-9.1-11.6-18.2-17.3-27.3c-1.3-2-2.7-2.9-5.1-3.1
	c-20.9-1.9-41.7-3.9-62.5-6c-1.4-0.1-3,0.2-4.5-1c5.3-7.5,8.2-15.7,7.4-25.1C152.2,17.9,141.8,5.3,127,1.2c-1-0.3-2.4,0.2-3-1.2
	c-4.7,0-9.3,0-14,0c-0.5,1.4-1.9,1.1-2.9,1.5C85.7,8.7,76.3,29.1,84.6,50.2c0.2,0.6,0.3,1.2,0.6,2.2C70.3,51.2,55.6,50,41,48.8
	c2.2,7.6,6,14.6,8.9,22c0.3,0.8,0.8,1.7,1.1,2.5c0.2,0.4,0.3,0.8,0.4,1.2c0.1,0.4,0.2,0.9,0.3,1.3c0,0,0,0.1,0,0.1
	c0.1,1-0.1,2.1-0.8,3.3c2,1,3.3,2.4,4.3,4c0.2,0.4,0.4,0.8,0.6,1.2c0.1,0.3,0.3,0.6,0.4,0.9c0.2,0.4,0.3,0.8,0.5,1.2
	c0.2,0.5,0.3,0.9,0.5,1.4c0.7,2.1,1.2,4.2,2.1,6.1c7,14.1,12.5,28.8,18.7,43.2c5.2,12.1,10.3,24.4,15.4,36.6c10.1,0,20.1,0,30.2,0.1
	c1.9,0,4-0.8,5.5,1.3c0.9-0.7,1.8-1.4,3-0.5c0.6-0.2,1.3-0.4,2-0.5C134.7,174.1,135.3,174,136,174z M88.9,49.1
	c0.8-6.4,1.4-12.8,2-19.2c0.3-2.9,2.1-2.8,4.2-2.7c3.3,0.3,6.6,0.5,9.8,0.7c-0.9-5.3,1.7-6.6,6.5-6c3.4,0.5,6.9,0.6,10.3,0.9
	c6.7,0.5,6.7,0.4,6.4,7c3.8,0.4,7.5,1.1,11.3,1.2c2.7,0.1,4,1,4,3.7c0,7.4-0.4,14.9-1.5,22.2c-0.1,0.6-1.1,1.1-1.7,1.7c0,0,0,0,0,0
	c-0.3,4.3-0.6,8.6-0.9,12.9c-0.2,3.3-1.8,4.7-5.2,4.5c-13.6-1.1-27.1-2-40.6-3.9c-3-0.4-3.4-1.9-3.2-4.5c0.6-4.8,1-9.6,1.5-14.4
	C89.7,52.8,88.6,51.5,88.9,49.1z M115.3,120.7c-0.2,2.2,0.5,5-3.4,4.4c-1.4-0.2-2.3,0.4-2.2,1.9c0.1,2.3-1,6,0.7,6.5
	c5.8,1.7,2.6,5.4,2.6,8.4c-5.3,1.7-10.7,1.9-16-0.1c-0.6-3.1-3.4-6.4,2.3-8.1c2.3-0.7,0.6-4.2,0.9-6.4c0.3-1.6-0.5-2.6-2.3-2
	c-3.4,2.4-13.9,2.3-17-0.2c-0.2-0.2-0.7-0.5-0.6-0.7c2.3-10,4.8-19.9,7.1-29.9c0.9-3.9,4-2.5,6-2.2c2.9,0.4,1.3,2.9,1,4.4
	c-1.1,5.5-2.2,11.1-3.8,16.5c-1.1,3.5,0.1,4.1,3.1,3.7c1.1-0.1,2.3-0.1,3.5,0c2.4,0.3,3.1-0.7,3.1-3.1c-0.1-6,0.2-12,0-17.9
	c-0.2-4.2,2.3-3.7,5.1-3.9c2.9-0.2,4.2,0.5,4.1,3.8c-0.2,6,0.1,12,0.2,17.9c0,1.7-0.3,3.5,2.4,3.3
	C114.7,116.9,115.5,118.2,115.3,120.7z M121.6,139.4c-2.8-3-2.4-6.9-1-9.2c1.4-2.4,5.5-0.9,8.4-0.7c1.2,0.1,0.6,1.7,1,2.5
	c1,2.2,2.5,4,5.3,3.4c2.5-0.6,4.7-1.7,3.9-5c-0.2-0.9-0.1-2,0-3c0.4-3.5-0.5-5-4.6-4.8c-6.3,0.3-7.7-1.2-7.8-6.1
	c-0.1-3.2,1.1-4.3,4.4-4.4c7.7-0.1,10-3.4,7.9-11c-0.5-1.9-1.8-3-4-2.9c-2.2,0.1-4.6,0-5.1,2.9c-0.3,1.9,0,3.9-2.8,3.4
	c-2.3-0.4-5.8,1.4-6.8-1.2c-0.9-2.3-1.6-5.7,0.6-8.1c1.7-1.9,3.6-3.7,6.8-3.4c4,0.4,8,0.1,12,0.1c5.8,0,9,3.4,9,9.2
	c0,3.2-0.1,6.3,0,9.5c0.1,3.5-2.8,6.4-0.3,10.6c1.7,3,0.3,7.8,0.3,11.8c0,5.1-3.3,8.6-8.5,8.8c-2.2,0.1-4.3,0-6.9,0
	C129.6,141.4,125.2,143.2,121.6,139.4z"/>
<path class="color-fill_orange-porsche" d="M21.3,75.7c-6.7,7.8-11.2,16.8-15.5,26C3.2,107.2,2.4,113.4,0,119
	c0,4.3,0,8.7,0,13c1.6,0.9,1.3,2.6,1.7,3.9c5.5,20.9,26.3,30.1,43.5,29.8c2.9-0.1,6.5-0.4,7.5-3.8c1.1-3.5-1.5-6.1-4.1-7.9
	c-5-3.5-8.8-8.1-12.9-12.4c-2-2-2.9-4.2-3.1-7c-0.9-8.8,1.9-16.3,7.3-23.2c5.1-6.5,11.5-11.5,18-16.4c-6.6-2.9-12.5-7.1-18.7-10.7
	c-0.9-0.5-1.8-1-2.7-1.5C31.5,80.4,26.7,77.3,21.3,75.7z"/>
<path class="color-fill_grey-suva" d="M91,178c-3.3,4.2-5.8,8.8-8.1,13.5c-1.6,3.2-1.2,4.9,2.1,6.6
	c7,3.8,14.6,6.1,22,8.8c0.3,0,0.7,0,1,0c3.3-7.7,7.8-14.7,12.3-21.7c-8.4-1.7-16.8-3.3-25.2-5C93.5,179.9,91.8,179.9,91,178z"/>
<path class="color-fill_grey-suva" d="M153.8,186.2c-0.2-0.1-0.5-0.1-0.7-0.2c-1.7,0.9-3.5,1.4-5.3,2
	c-0.3,0.1-0.7,0.2-1,0.3c-2.1,0.7-4.2,1.6-5.8,3.4c1.1,5.5,5.1,9.9,6.1,15.4c0.7,0,1.3,0,2,0c4-1.5,8-3,12-4.5
	C158.6,197,156.2,191.6,153.8,186.2C153.8,186.2,153.8,186.2,153.8,186.2z"/>
<path class="color-fill_grey-nero" d="M174.9,156c5.9-14.6,11.8-29.2,17.7-43.7c-1.3,0-2.7-0.2-3.9,0.2
	c-7.8,2.7-15.8,4.9-23.8,6.8c-2.9,0.7-4,2.2-3.9,5.3c0.8,14.8,1.4,29.7,2,44.5c0.1,2.4,1.8,2.9,3.1,4.1c0.4,0,0.8,0,1.2,0
	c3.2-4.6,4.3-10.2,7-15.1C174.1,157.2,173.9,156.4,174.9,156z"/>
<path class="color-fill_grey-nero" d="M51.7,75.9c0,0,0-0.1,0-0.1c-0.1-0.4-0.2-0.9-0.3-1.3c-0.1-0.4-0.3-0.8-0.4-1.2
	c-0.4-0.8-0.8-1.7-1.1-2.5c-2.9-7.3-6.7-14.3-8.9-22c-2.5-1.4-4.8-0.6-6,1.5c-4.6,8.1-8.8,16.4-13.2,24.6c9.7,1.4,19.5,2.9,29.2,4.3
	C51.7,78.1,51.9,77,51.7,75.9z"/>
<path class="color-fill_grey-dim" d="M123.6,174c-10.1-0.1-20.1-0.1-30.2-0.1c-0.8,1.4-1.6,2.7-2.4,4.1
	c0.8,1.9,2.5,1.9,4.1,2.2c8.4,1.7,16.8,3.3,25.2,5c2.9-3.3,5.8-6.7,8.7-10C127.6,173.2,125.5,174,123.6,174z"/>
<path class="color-fill_brown-toast" d="M56.7,86.5c-0.1-0.4-0.3-0.8-0.5-1.2c-0.1-0.3-0.3-0.6-0.4-0.9
	c-0.2-0.4-0.4-0.8-0.6-1.2c-1-1.6-2.3-3-4.3-4c0,0,0,0,0,0c-9.7-1.4-19.5-2.9-29.2-4.3c-0.4,0.1-0.5,0.4-0.4,0.7
	c5.4,1.6,10.1,4.7,15.1,7.3c0.9,0.5,1.8,1,2.7,1.5c6.3,3.5,12.1,7.8,18.7,10.7c0.5-0.3,1-0.7,1.5-1c-0.9-1.9-1.4-4.1-2.1-6.1
	C57.1,87.5,56.9,87,56.7,86.5z"/>
<path class="color-fill_grey-dim" d="M147.7,187.9c1.8-0.6,3.7-1.1,5.3-2c-1.7-3.9-3.5-7.9-5.2-11.8c0,0,0,0,0,0
	c-3.3,0-6.6-0.4-9.9-0.3c0,0,0,0-0.1,0c-0.6,0-1.3,0.1-1.9,0.1c-0.7,0.1-1.3,0.2-2,0.3c-0.7,0.1-1.3,0.3-2,0.5
	c2,6.1,5.1,11.6,8.8,16.8c1.6-1.8,3.7-2.7,5.8-3.4C147.1,188.1,147.4,188,147.7,187.9z"/>
<path class="color-fill_brown-toast" d="M193.9,111.9c1.7,2,3.4,4.1,5.1,6.1c13-5.3,26-10.7,39.1-16
	c-0.3-0.4-0.5-0.8-0.8-1.3c-3.7,0.7-7.3,1.4-11,2.2C215.4,105.3,204.6,108.3,193.9,111.9z"/>
<path class="color-fill_brown-wood-medium" d="M138,68.9c0,3.8-1.4,5.6-5.4,4c-6.9,0.5-13.7-1-20.5-1.2
	c-4.5-0.1-9.4,0-13.9-1.7c-4.6,0.6-5.8-1.2-4.6-5.7c0.9-3.3,0.9-6.8,1.3-10.2c-1-0.3-1.9-0.6-2.9-0.9c-0.5,4.8-1,9.6-1.5,14.4
	c-0.3,2.5,0.2,4,3.2,4.5c13.5,2,27.1,2.8,40.6,3.9c3.3,0.3,5-1.2,5.2-4.5c0.3-4.3,0.6-8.6,0.9-12.9c0,0,0,0,0,0c-0.7,0-1.4,0-2.1,0
	C138.1,62,138,65.5,138,68.9z"/>
<path class="color-fill_grey" d="M121.7,22.8c-3.4-0.2-6.9-0.4-10.3-0.9c-4.8-0.7-7.3,0.7-6.5,6c7.7,0.6,15.4,1.3,23.2,1.9
	C128.4,23.2,128.4,23.2,121.7,22.8z"/>
<path class="color-fill_grey-dim" d="M153.9,174c1.7,3.3,3.4,6.7,5.2,10c3.7-1,7.4-2,11-3c-1-2.6-2-5.3-3-7.9
	c-0.4,0-0.8,0-1.2,0C162.1,174.7,157.9,173.5,153.9,174z"/>
<path class="color-fill_grey-nero" d="M148.9,173.4c-0.4,0.2-0.7,0.4-1.1,0.8c1.7,3.9,3.5,7.9,5.2,11.8v0
	c0.2,0.1,0.5,0.2,0.7,0.2c0,0,0,0,0,0v0c0.8-0.5,1.6-0.8,2.4-0.9c0.3-0.1,0.6-0.1,0.8-0.1c0.7-0.1,1.4-0.1,2.1,0c0-0.3,0-0.7,0-1
	c-1.7-3.3-3.4-6.7-5.2-10c-0.3-0.1-0.5-0.2-0.8-0.3C151.7,173,150.3,172.7,148.9,173.4z"/>
<path class="color-fill_grey-nero" d="M98,125.4c-5.7-0.1-11.3-0.1-17-0.2C84.1,127.7,94.6,127.8,98,125.4z"/>
<path class="color-fill_grey-nero" d="M97,141.9c5.3,2,10.6,1.8,16,0.1C107.7,141.4,102.4,141.6,97,141.9z"/>
<path class="color-fill_orange-porsche" d="M221.7,186.8c0.6-0.5,1.2-1,1.8-1.5c0.5-0.4,1-0.9,1.5-1.3
	c2-2,3.7-4.3,5.7-6.2c1.2-1.2,2.5-2.2,4.1-3c0-1.4,0.8-2.4,1.6-3.5c15.8-21.1,16.4-47.5,1.6-69.3c-13,5.3-26,10.7-39.1,16
	c1.4,2.5,2.6,5,3.8,7.5c3.4,7.6,5.5,15.7,5,24.4c0,0,0,0,0,0c0.1,4.2-0.5,8.4-1.9,12.4c-0.9,5.6-3.5,10.4-6.1,15.3
	c-0.6,1.1-1.2,2.2-1.8,3.4c0.2,1.5-0.2,2.9-0.8,4.1c-0.4,0.7-0.9,1.4-1.4,2.1c-1.5,2.1-1.9,4.4-1.8,6.9c2.7,4.1,6.9,3.8,11,3.9
	c4.8-1.9,9-4.8,12.9-8C219.2,188.9,220.5,187.8,221.7,186.8z"/>
<path class="color-fill_orange-tan-alert" d="M195.8,187.2c0.5-0.7,1-1.4,1.4-2.1c0.7-1.2,1.1-2.6,0.8-4.1
	c-1.8-0.5-3.1-1.1-3.7-2.1c-0.1-0.1-0.1-0.3-0.2-0.4c-0.1-0.3-0.1-0.6-0.1-0.9c0.1-0.8,0.5-1.7,1.3-2.9c1.2-1.7,2.1-3.6,3.2-5.4
	c-1.2-0.4-2.5-0.9-3.7-1.3c-1.3,2-2.7,4-3.9,6c-0.9,1.4-1.6,2.3-3.5,1.2c-2-1.2-1.8-2.6-0.9-4.1c1.3-1.9,2.9-3.6,3.6-5.9
	c-4.4-3.2-10.2-4.3-13.3-9.4c-0.3,0-0.6,0.3-0.8,0.5c-0.1,0.1-0.3,0.2-0.5,0.2c0.2,0.5-0.3,1-0.6,1.5c0.4,15.1,6.6,27.3,19.1,36
	C193.9,191.6,194.3,189.3,195.8,187.2z"/>
<path class="color-fill_orange-tan-alert" d="M225,184L225,184c-0.5,0.4-1,0.9-1.5,1.3c-0.6,0.5-1.2,1-1.8,1.5
	c-1.2,1-2.5,2.1-3.7,3.1c-4,3.2-8.1,6.1-12.9,8c2.8,0.3,5.6,1,8.4,1c8.2-0.1,16.1-1.1,22.7-6.8C233.1,188.4,227.5,188.3,225,184z"/>
<path class="color-fill_grey-suva" d="M159.1,185c3,4.8,5.2,9.9,7.2,15.2c11.1-4.6,11.1-4.6,6-15.4
	c-0.6-1.3-1.5-2.6-2.2-3.9c-3.7,1-7.4,2-11,3C159.1,184.3,159.1,184.7,159.1,185z"/>
<path class="color-fill_orange-cumin" d="M230.7,177.8c-2,1.9-3.7,4.2-5.7,6.2c2.5,4.3,8.1,4.4,11.1,8.1
	c3.7-6.1-0.2-11.6-1.3-17.3C233.2,175.6,231.9,176.6,230.7,177.8z"/>
<path class="color-fill_grey-eclipse" d="M157,185.1c-0.3,0-0.6,0.1-0.8,0.1c-0.8,0.2-1.6,0.5-2.4,0.9v0
	c2.4,5.4,4.8,10.9,7.3,16.3c1.9-0.5,3.7-1,5.2-2.3c-2-5.3-4.2-10.4-7.2-15.2C158.4,185,157.7,185,157,185.1z"/>
<path class="color-fill_orange-porsche" d="M97.6,49c10.2,1,20.3,2.2,30.5,3c3.1,0.2,7.1,2.9,9.2,0.2
	c1.9-2.5,0.9-6.7,0.8-10.2c-13.1-1.3-26.2-2.7-39.3-4c-1.4-0.1-2.6-0.4-3-2c-1.3,2.9-1.5,6-1.9,9C93.5,47.9,95.1,48.8,97.6,49z"/>
<path class="color-fill_orange-porsche" d="M122.3,57.8c-4.8,0.5-9.6-0.7-14.1-1.6c-4.2-0.8-4,1.9-4,3.6
	c0.1,2.2-2.7,6.2,2.7,6.2c5.2-0.1,10.3,0.2,14.4,0.7c6.7,0.4,6.3,0.3,6.8-4.3C128.7,57.3,125.6,57.5,122.3,57.8z"/>
<path class="color-fill_brown-toast" d="M98.9,38c13.1,1.3,26.2,2.7,39.3,4c0.2-2,2.5-4.9-1.8-5.2
	c-12.4-0.9-24.8-3.3-37.3-2.8c-1.5,0.1-3.1-0.2-3.2,2C96.2,37.6,97.4,37.8,98.9,38z"/>
<path class="color-fill_orange-porsche" d="M98.2,70c-1-4,0.4-7.9,0.8-11.8c0.3-3.4-0.9-4.6-4.1-4.1
	c-0.4,3.4-0.4,6.9-1.3,10.2C92.3,68.8,93.6,70.6,98.2,70z"/>
<path class="color-fill_orange-porsche" d="M138,68.9c0-3.4,0.1-6.9,0.1-10.3c-3.2-1.1-3.9,0.3-4.1,3.3
	c-0.2,3.7,1.5,7.6-1.4,10.9C136.6,74.5,138,72.7,138,68.9z"/>
<path class="color-fill_orange-cumin" d="M195.6,149.3c-1.7,0.1-3.3,0.2-5,0.5c-0.5,0.1-1.1,0.2-1.6,0.3
	c-4.3,0.9-8.4,2.7-12.2,5.6c3.1,5,8.9,6.2,13.3,9.4c1.4-2.2,2.8-4.4,4.2-6.6c0.8-1.2,1.5-2,3.2-1c1.6,1,2,1.8,1,3.5
	c-1.4,2.2-2.5,4.6-3.7,7c1.2,0.4,2.5,0.9,3.7,1.3c1.3-2.1,2.7-4,3.9-6.2c1-1.9,2.1-1.6,3.5-0.8c1.4-4,1.9-8.1,1.9-12.4c0,0,0,0,0,0
	c-1.8-0.2-3.6-0.4-5.4-0.5C200.1,149.2,197.8,149.2,195.6,149.3z"/>
</svg>
